<svg version="1.1" id="Layer_1" xmlns="http://www.w3.org/2000/svg" xmlns:xlink="http://www.w3.org/1999/xlink" x="0px" y="0px"
	 width="100%" viewBox="0 0 400 104" enable-background="new 0 0 400 104" xml:space="preserve">
<path fill="#FFFFFF" opacity="1.000000" stroke="none"
	d="
M1.000000,89.000000
	C1.000000,59.728783 1.000000,30.457567 1.000000,1.000000
	C40.354031,1.000000 79.708359,1.000000 119.373680,1.291618
	C118.251862,2.700073 116.774010,3.764185 115.394196,4.943057
	C110.000381,9.551387 109.551460,18.783779 114.449577,23.687195
	C119.040314,28.282873 127.881584,27.874327 132.459381,22.854965
	C137.274994,17.574858 136.556747,9.336840 130.925339,4.681364
	C129.545471,3.540632 128.304718,2.231633 127.000000,1.000000
	C218.210617,1.000000 309.421234,1.000000 401.000000,1.000000
	C401.000000,18.019125 401.000000,35.040905 400.708557,52.367393
	C399.603516,51.435036 398.728912,50.233433 397.985565,48.955498
	C389.093506,33.668636 370.003998,28.798893 355.137604,38.042332
	C340.716644,47.008801 336.785370,65.870911 346.360443,80.519363
	C348.105225,83.188614 350.179993,85.642143 352.442719,88.647171
	C350.322693,88.793121 348.852692,88.982155 347.382660,88.982727
	C307.395111,88.998253 267.407593,88.997871 227.420059,88.980865
	C225.927750,88.980232 224.187393,89.225372 223.011948,88.560997
	C221.798523,87.875175 220.425323,86.214851 220.429520,84.985321
	C220.433746,83.755302 221.817825,81.913246 223.023773,81.449760
	C224.798935,80.767509 227.091202,81.484230 228.918152,80.872810
	C233.693878,79.274513 239.217346,78.323334 242.867096,75.245689
	C253.767990,66.053520 256.177216,50.270512 249.683594,37.480747
	C244.341858,26.959715 233.466949,24.227058 223.701431,30.944483
	C222.909729,31.489077 222.079498,31.977694 221.638458,32.257107
	C219.979721,30.671429 218.331375,28.023272 217.251602,28.237734
	C210.308319,29.616819 203.489563,31.622732 196.768509,33.386410
	C197.577499,36.722961 198.821289,39.568073 198.867447,42.432487
	C199.084900,55.924721 198.892059,69.423058 199.025620,82.917435
	C199.071060,87.507904 196.978607,89.099243 192.626083,89.024857
	C184.131256,88.879707 175.632065,89.007866 167.135025,88.963074
	C164.434570,88.948845 161.399170,89.003944 161.275589,85.198441
	C161.140610,81.041916 164.371552,81.387825 167.221924,80.953667
	C171.597916,80.287117 176.268936,79.983131 180.189301,78.171677
	C197.210281,70.306938 197.839355,43.013561 187.382202,32.155693
	C183.137726,27.748568 177.492966,25.802378 171.363754,27.894262
	C167.985275,29.047329 164.892761,31.038248 162.208099,32.382645
	C160.922272,30.938593 159.387939,28.142704 158.447128,28.329891
	C151.396774,29.732647 144.463608,31.724277 137.774033,33.458885
	C138.708755,36.647865 139.994705,39.136780 140.087051,41.669224
	C140.559860,54.635254 140.801575,67.611511 140.969727,80.586189
	C141.074020,88.633812 140.625992,88.990097 132.459030,88.992493
	C88.639351,89.005348 44.819675,88.999435 1.000000,89.000000
M132.406982,27.720032
	C125.100639,29.565884 117.794296,31.411734 110.854752,33.164917
	C111.655899,37.259239 112.780556,40.622917 112.887177,44.018562
	C113.158928,52.673439 113.241280,61.355453 112.821815,69.998573
	C112.687073,72.774910 110.497131,77.877312 109.675903,77.791992
	C105.112282,77.317802 106.131943,73.054001 106.066803,69.951439
	C105.884972,61.291462 106.210617,52.617149 105.896446,43.964451
	C105.342445,28.706844 93.041145,22.308146 80.059494,30.324484
	C78.815300,31.092787 77.519913,31.778183 76.680656,32.255939
	C74.977394,30.657015 73.318634,28.026955 72.219841,28.243134
	C65.276268,29.609213 58.456799,31.606121 52.289608,33.214043
	C54.973763,49.261829 54.768852,64.605286 52.512386,80.450607
	C60.309509,80.450607 68.727074,80.450607 76.363022,80.450607
	C75.878754,75.081123 75.218803,70.217453 75.054466,65.337082
	C74.835907,58.846851 74.993362,52.343594 75.012833,45.846001
	C75.017326,44.348167 74.974602,42.828415 75.203133,41.357521
	C75.693756,38.199837 76.865044,35.273479 80.665863,35.407272
	C84.453011,35.540581 84.917656,38.591042 84.942116,41.571335
	C85.004997,49.234680 85.131088,56.901890 84.956612,64.561279
	C84.838593,69.742096 84.253670,74.912277 83.853828,80.414093
	C100.679375,80.414093 118.432549,80.414093 135.944199,80.414093
	C135.188293,76.878418 134.544266,73.866013 133.946960,69.942505
	C133.961929,57.868633 134.020401,45.794502 133.947449,33.721161
	C133.935806,31.793150 133.334961,29.868698 132.406982,27.720032
M281.242615,61.654037
	C280.701172,60.750656 280.159729,59.847275 279.471222,58.698586
	C285.070923,57.966557 290.203705,57.582226 295.205322,56.557804
	C299.829254,55.610760 303.722107,53.067867 304.646057,48.050751
	C305.642029,42.642536 305.118988,37.370640 300.662872,33.322781
	C293.103790,26.456238 279.471436,25.087118 269.700439,30.169228
	C259.597473,35.423988 254.847412,46.058025 255.578888,57.312107
	C256.531982,71.976128 270.178253,84.629868 288.144257,81.805031
	C297.048737,80.404968 303.554443,74.400063 303.780334,66.482178
	C296.029144,67.148590 288.101471,67.996414 281.242615,61.654037
M46.538647,56.092026
	C43.919106,53.830917 41.460831,51.339901 38.642109,49.362755
	C34.446575,46.419857 29.796040,44.103951 25.724506,41.013508
	C22.970905,38.923428 21.143774,35.616077 23.819304,32.316467
	C26.584393,28.906408 30.672340,29.104252 33.669338,31.569914
	C36.911835,34.237545 39.354031,37.906681 42.009422,41.247009
	C43.330086,42.908333 44.346886,44.811214 45.501148,46.604820
	C45.998493,46.441875 46.495834,46.278934 46.993179,46.115993
	C46.993179,43.174107 46.993870,40.232220 46.993050,37.290333
	C46.990479,28.081053 46.989845,28.107014 38.035488,27.965538
	C36.047863,27.934134 34.059849,27.467571 32.079639,27.515606
	C26.961117,27.639769 21.723124,27.324924 16.762051,28.323797
	C10.492051,29.586216 5.353569,32.997166 3.652655,39.858162
	C1.952595,46.715717 3.989998,52.442387 9.406193,56.754368
	C12.499670,59.217175 16.047750,61.118736 19.438747,63.195255
	C22.694546,65.188988 26.548662,66.558228 29.122828,69.194832
	C30.997372,71.114845 32.571701,75.063156 31.866692,77.369545
	C30.741495,81.050537 26.285618,80.753876 23.754045,79.044754
	C18.911148,75.775223 14.560925,71.724319 10.264466,67.720573
	C8.350528,65.937027 7.062266,63.482059 5.490028,61.331833
	C4.995018,61.497704 4.500008,61.663578 4.004998,61.829449
	C4.004998,64.418861 4.253806,67.037544 3.953326,69.591606
	C3.323139,74.948166 5.676960,78.127251 10.603900,79.765762
	C20.031530,82.901039 29.609190,83.547173 38.904488,79.880997
	C49.301037,75.780472 52.187965,66.758751 46.538647,56.092026
M308.469910,67.701088
	C308.893127,69.310562 309.234894,70.946785 309.753265,72.525009
	C312.460144,80.766685 322.203705,84.944809 330.066193,81.270370
	C334.396210,79.246803 334.680969,77.158493 331.650543,73.530144
	C330.339264,71.960144 329.128326,69.781525 329.022644,67.817459
	C328.478210,57.694622 328.318237,47.551361 328.000061,37.415977
	C327.880157,33.597137 327.918762,29.908133 331.849792,29.615528
	C330.030823,26.575390 328.254089,23.605804 326.512695,20.695362
	C319.555054,23.443398 312.275757,26.318480 305.857025,28.853666
	C306.567780,31.521843 307.806396,34.176216 307.897308,36.869328
	C308.234253,46.852303 308.192963,56.848042 308.469910,67.701088
z"/>
<path fill="#FFFFFF" opacity="1.000000" stroke="none"
	d="
M1.000000,89.416664
	C44.819675,88.999435 88.639351,89.005348 132.459030,88.992493
	C140.625992,88.990097 141.074020,88.633812 140.969727,80.586189
	C140.801575,67.611511 140.559860,54.635254 140.087051,41.669224
	C139.994705,39.136780 138.708755,36.647865 137.774033,33.458885
	C144.463608,31.724277 151.396774,29.732647 158.447128,28.329891
	C159.387939,28.142704 160.922272,30.938593 162.208099,32.382645
	C164.892761,31.038248 167.985275,29.047329 171.363754,27.894262
	C177.492966,25.802378 183.137726,27.748568 187.382202,32.155693
	C197.839355,43.013561 197.210281,70.306938 180.189301,78.171677
	C176.268936,79.983131 171.597916,80.287117 167.221924,80.953667
	C164.371552,81.387825 161.140610,81.041916 161.275589,85.198441
	C161.399170,89.003944 164.434570,88.948845 167.135025,88.963074
	C175.632065,89.007866 184.131256,88.879707 192.626083,89.024857
	C196.978607,89.099243 199.071060,87.507904 199.025620,82.917435
	C198.892059,69.423058 199.084900,55.924721 198.867447,42.432487
	C198.821289,39.568073 197.577499,36.722961 196.768509,33.386410
	C203.489563,31.622732 210.308319,29.616819 217.251602,28.237734
	C218.331375,28.023272 219.979721,30.671429 221.638458,32.257107
	C222.079498,31.977694 222.909729,31.489077 223.701431,30.944483
	C233.466949,24.227058 244.341858,26.959715 249.683594,37.480747
	C256.177216,50.270512 253.767990,66.053520 242.867096,75.245689
	C239.217346,78.323334 233.693878,79.274513 228.918152,80.872810
	C227.091202,81.484230 224.798935,80.767509 223.023773,81.449760
	C221.817825,81.913246 220.433746,83.755302 220.429520,84.985321
	C220.425323,86.214851 221.798523,87.875175 223.011948,88.560997
	C224.187393,89.225372 225.927750,88.980232 227.420059,88.980865
	C267.407593,88.997871 307.395111,88.998253 347.382660,88.982727
	C348.852692,88.982155 350.322693,88.793121 352.442719,88.647171
	C350.179993,85.642143 348.105225,83.188614 346.360443,80.519363
	C336.785370,65.870911 340.716644,47.008801 355.137604,38.042332
	C370.003998,28.798893 389.093506,33.668636 397.985565,48.955498
	C398.728912,50.233433 399.603516,51.435036 400.708557,52.836052
	C401.000000,59.687645 401.000000,66.375290 400.708374,73.694809
	C391.880371,90.792313 377.590881,94.448715 360.246613,94.203117
	C316.784241,93.587700 273.307220,93.957191 229.836548,94.091408
	C226.753525,94.100914 223.674484,95.412155 220.593597,96.118103
	C221.729065,99.078735 222.864532,102.039368 224.000000,105.000000
	C214.645767,105.000000 205.291550,105.000000 195.612320,104.687988
	C195.570801,103.966652 195.970917,103.595207 196.118256,103.141655
	C196.893677,100.754562 197.605240,98.346725 198.338959,95.946091
	C196.218674,95.300209 194.114487,94.168137 191.975159,94.097282
	C184.822205,93.860359 177.656647,93.994263 170.495941,94.002502
	C159.904129,94.014687 159.465302,94.780815 164.672272,104.058052
	C164.832458,104.343445 164.893005,104.684753 165.000000,105.000000
	C155.645767,105.000000 146.291550,105.000000 136.613052,104.690910
	C137.403107,101.450821 138.517441,98.519814 139.631775,95.588814
	C136.993912,95.059288 134.357071,94.074013 131.718048,94.068214
	C88.145531,93.972565 44.572735,94.000084 1.000000,94.000000
	C1.000000,92.611107 1.000000,91.222221 1.000000,89.416664
M162.635056,39.520096
	C162.106491,41.406631 161.153854,43.285809 161.120956,45.180950
	C160.956787,54.638065 160.961807,64.100456 161.103714,73.558052
	C161.125305,74.997002 161.890259,77.331657 162.821533,77.623367
	C164.018860,77.998421 166.515366,77.150818 167.085464,76.093163
	C169.460953,71.686218 172.086380,67.178940 173.194702,62.379307
	C174.843109,55.240883 175.052353,47.828316 170.881561,41.159195
	C169.020981,38.184090 166.664276,36.324497 162.635056,39.520096
M220.002731,58.500835
	C220.011108,63.499397 219.895096,68.503189 220.104797,73.493286
	C220.166534,74.962242 220.848633,77.298836 221.787827,77.611504
	C222.967941,78.004372 224.918060,77.009758 226.142181,76.089935
	C227.417221,75.131859 228.876709,73.662514 229.125076,72.221825
	C230.407455,64.783524 231.748993,57.306171 232.167145,49.792206
	C232.335999,46.757877 230.609940,43.358440 228.966980,40.587116
	C228.080566,39.091911 225.075485,37.405746 223.874634,37.893665
	C222.203705,38.572578 220.491760,41.115505 220.277161,43.026722
	C219.741043,47.801872 220.039307,52.670708 220.002731,58.500835
z"/>
<path fill="#FFFFFF" opacity="1.000000" stroke="none"
	d="
M224.468658,105.000000
	C222.864532,102.039368 221.729065,99.078735 220.593597,96.118103
	C223.674484,95.412155 226.753525,94.100914 229.836548,94.091408
	C273.307220,93.957191 316.784241,93.587700 360.246613,94.203117
	C377.590881,94.448715 391.880371,90.792313 400.708374,74.163345
	C401.000000,84.311554 401.000000,94.623108 401.000000,105.000000
	C342.312469,105.000000 283.624878,105.000000 224.468658,105.000000
z"/>
<path fill="#FFFFFF" opacity="1.000000" stroke="none"
	d="
M1.000000,94.482956
	C44.572735,94.000084 88.145531,93.972565 131.718048,94.068214
	C134.357071,94.074013 136.993912,95.059288 139.631775,95.588814
	C138.517441,98.519814 137.403107,101.450821 136.144394,104.690910
	C90.999992,105.000000 45.999977,105.000000 1.000000,105.000000
	C1.000000,101.611221 1.000000,98.288567 1.000000,94.482956
z"/>
<path fill="#FFFFFF" opacity="1.000000" stroke="none"
	d="
M126.562500,1.000000
	C128.304718,2.231633 129.545471,3.540632 130.925339,4.681364
	C136.556747,9.336840 137.274994,17.574858 132.459381,22.854965
	C127.881584,27.874327 119.040314,28.282873 114.449577,23.687195
	C109.551460,18.783779 110.000381,9.551387 115.394196,4.943057
	C116.774010,3.764185 118.251862,2.700073 119.842339,1.291618
	C122.041664,1.000000 124.083336,1.000000 126.562500,1.000000
z"/>
<path fill="#FFFFFF" opacity="1.000000" stroke="none"
	d="
M165.468658,105.000000
	C164.893005,104.684753 164.832458,104.343445 164.672272,104.058052
	C159.465302,94.780815 159.904129,94.014687 170.495941,94.002502
	C177.656647,93.994263 184.822205,93.860359 191.975159,94.097282
	C194.114487,94.168137 196.218674,95.300209 198.338959,95.946091
	C197.605240,98.346725 196.893677,100.754562 196.118256,103.141655
	C195.970917,103.595207 195.570801,103.966652 195.143661,104.687988
	C185.312439,105.000000 175.624878,105.000000 165.468658,105.000000
z"/>
<path fill="#FFFFFF" opacity="1.000000" stroke="none"
	d="
M133.900238,70.853615
	C134.544266,73.866013 135.188293,76.878418 135.944199,80.414093
	C118.432549,80.414093 100.679375,80.414093 83.853828,80.414093
	C84.253670,74.912277 84.838593,69.742096 84.956612,64.561279
	C85.131088,56.901890 85.004997,49.234680 84.942116,41.571335
	C84.917656,38.591042 84.453011,35.540581 80.665863,35.407272
	C76.865044,35.273479 75.693756,38.199837 75.203133,41.357521
	C74.974602,42.828415 75.017326,44.348167 75.012833,45.846001
	C74.993362,52.343594 74.835907,58.846851 75.054466,65.337082
	C75.218803,70.217453 75.878754,75.081123 76.363022,80.450607
	C68.727074,80.450607 60.309509,80.450607 52.512386,80.450607
	C54.768852,64.605286 54.973763,49.261829 52.289608,33.214043
	C58.456799,31.606121 65.276268,29.609213 72.219841,28.243134
	C73.318634,28.026955 74.977394,30.657015 76.680656,32.255939
	C77.519913,31.778183 78.815300,31.092787 80.059494,30.324484
	C93.041145,22.308146 105.342445,28.706844 105.896446,43.964451
	C106.210617,52.617149 105.884972,61.291462 106.066803,69.951439
	C106.131943,73.054001 105.112282,77.317802 109.675903,77.791992
	C110.497131,77.877312 112.687073,72.774910 112.821815,69.998573
	C113.241280,61.355453 113.158928,52.673439 112.887177,44.018562
	C112.780556,40.622917 111.655899,37.259239 110.854752,33.164917
	C117.794296,31.411734 125.100639,29.565884 132.705688,28.304802
	C133.002914,36.972679 132.888885,45.057854 133.037491,53.138199
	C133.146149,59.046627 133.600174,64.948708 133.900238,70.853615
z"/>
<path fill="#FFFFFF" opacity="1.000000" stroke="none"
	d="
M281.477478,61.884705
	C288.101471,67.996414 296.029144,67.148590 303.780334,66.482178
	C303.554443,74.400063 297.048737,80.404968 288.144257,81.805031
	C270.178253,84.629868 256.531982,71.976128 255.578888,57.312107
	C254.847412,46.058025 259.597473,35.423988 269.700439,30.169228
	C279.471436,25.087118 293.103790,26.456238 300.662872,33.322781
	C305.118988,37.370640 305.642029,42.642536 304.646057,48.050751
	C303.722107,53.067867 299.829254,55.610760 295.205322,56.557804
	C290.203705,57.582226 285.070923,57.966557 279.471222,58.698586
	C280.159729,59.847275 280.701172,60.750656 281.477478,61.884705
M274.266510,49.993301
	C275.521698,51.774567 277.203735,55.223675 277.953949,55.031696
	C280.436951,54.396290 284.078003,52.834087 284.570984,50.928188
	C285.889160,45.831955 286.297699,40.342491 285.984955,35.073555
	C285.884216,33.376518 282.515869,30.821581 280.450836,30.619839
	C278.743652,30.453058 275.497589,32.912910 275.132416,34.666782
	C274.150330,39.383442 274.345245,44.345169 274.266510,49.993301
z"/>
<path fill="#FFFFFF" opacity="1.000000" stroke="none"
	d="
M46.764717,56.389263
	C52.187965,66.758751 49.301037,75.780472 38.904488,79.880997
	C29.609190,83.547173 20.031530,82.901039 10.603900,79.765762
	C5.676960,78.127251 3.323139,74.948166 3.953326,69.591606
	C4.253806,67.037544 4.004998,64.418861 4.004998,61.829449
	C4.500008,61.663578 4.995018,61.497704 5.490028,61.331833
	C7.062266,63.482059 8.350528,65.937027 10.264466,67.720573
	C14.560925,71.724319 18.911148,75.775223 23.754045,79.044754
	C26.285618,80.753876 30.741495,81.050537 31.866692,77.369545
	C32.571701,75.063156 30.997372,71.114845 29.122828,69.194832
	C26.548662,66.558228 22.694546,65.188988 19.438747,63.195255
	C16.047750,61.118736 12.499670,59.217175 9.406193,56.754368
	C3.989998,52.442387 1.952595,46.715717 3.652655,39.858162
	C5.353569,32.997166 10.492051,29.586216 16.762051,28.323797
	C21.723124,27.324924 26.961117,27.639769 32.079639,27.515606
	C34.059849,27.467571 36.047863,27.934134 38.035488,27.965538
	C46.989845,28.107014 46.990479,28.081053 46.993050,37.290333
	C46.993870,40.232220 46.993179,43.174107 46.993179,46.115993
	C46.495834,46.278934 45.998493,46.441875 45.501148,46.604820
	C44.346886,44.811214 43.330086,42.908333 42.009422,41.247009
	C39.354031,37.906681 36.911835,34.237545 33.669338,31.569914
	C30.672340,29.104252 26.584393,28.906408 23.819304,32.316467
	C21.143774,35.616077 22.970905,38.923428 25.724506,41.013508
	C29.796040,44.103951 34.446575,46.419857 38.642109,49.362755
	C41.460831,51.339901 43.919106,53.830917 46.764717,56.389263
z"/>
<path fill="#FFFFFF" opacity="1.000000" stroke="none"
	d="
M308.381836,67.270035
	C308.192963,56.848042 308.234253,46.852303 307.897308,36.869328
	C307.806396,34.176216 306.567780,31.521843 305.857025,28.853666
	C312.275757,26.318480 319.555054,23.443398 326.512695,20.695362
	C328.254089,23.605804 330.030823,26.575390 331.849792,29.615528
	C327.918762,29.908133 327.880157,33.597137 328.000061,37.415977
	C328.318237,47.551361 328.478210,57.694622 329.022644,67.817459
	C329.128326,69.781525 330.339264,71.960144 331.650543,73.530144
	C334.680969,77.158493 334.396210,79.246803 330.066193,81.270370
	C322.203705,84.944809 312.460144,80.766685 309.753265,72.525009
	C309.234894,70.946785 308.893127,69.310562 308.381836,67.270035
z"/>
<path fill="#FFFFFF" opacity="1.000000" stroke="none"
	d="
M133.923615,70.398056
	C133.600174,64.948708 133.146149,59.046627 133.037491,53.138199
	C132.888885,45.057854 133.002914,36.972679 133.005447,28.416086
	C133.334961,29.868698 133.935806,31.793150 133.947449,33.721161
	C134.020401,45.794502 133.961929,57.868633 133.923615,70.398056
z"/>
<path fill="#FFFFFF" opacity="1.000000" stroke="none"
	d="
M162.882523,39.245743
	C166.664276,36.324497 169.020981,38.184090 170.881561,41.159195
	C175.052353,47.828316 174.843109,55.240883 173.194702,62.379307
	C172.086380,67.178940 169.460953,71.686218 167.085464,76.093163
	C166.515366,77.150818 164.018860,77.998421 162.821533,77.623367
	C161.890259,77.331657 161.125305,74.997002 161.103714,73.558052
	C160.961807,64.100456 160.956787,54.638065 161.120956,45.180950
	C161.153854,43.285809 162.106491,41.406631 162.882523,39.245743
z"/>
<path fill="#FFFFFF" opacity="1.000000" stroke="none"
	d="
M220.002747,58.001389
	C220.039307,52.670708 219.741043,47.801872 220.277161,43.026722
	C220.491760,41.115505 222.203705,38.572578 223.874634,37.893665
	C225.075485,37.405746 228.080566,39.091911 228.966980,40.587116
	C230.609940,43.358440 232.335999,46.757877 232.167145,49.792206
	C231.748993,57.306171 230.407455,64.783524 229.125076,72.221825
	C228.876709,73.662514 227.417221,75.131859 226.142181,76.089935
	C224.918060,77.009758 222.967941,78.004372 221.787827,77.611504
	C220.848633,77.298836 220.166534,74.962242 220.104797,73.493286
	C219.895096,68.503189 220.011108,63.499397 220.002747,58.001389
z"/>
<path fill="#FFFFFF" opacity="1.000000" stroke="none"
	d="
M274.169708,49.601456
	C274.345245,44.345169 274.150330,39.383442 275.132416,34.666782
	C275.497589,32.912910 278.743652,30.453058 280.450836,30.619839
	C282.515869,30.821581 285.884216,33.376518 285.984955,35.073555
	C286.297699,40.342491 285.889160,45.831955 284.570984,50.928188
	C284.078003,52.834087 280.436951,54.396290 277.953949,55.031696
	C277.203735,55.223675 275.521698,51.774567 274.169708,49.601456
z"/>
</svg>
